<svg xmlns="http://www.w3.org/2000/svg" viewBox="0 0 1024 1024" role="img" aria-label="Neu mark">
  <path d="M188 792 V470 C188 300 330 204 474 204&#xA;           C606 204 684 280 716 382&#xA;           L640 515&#xA;           C624 432 574 364 476 364&#xA;           C386 364 330 422 330 506&#xA;           V792 Z" fill="#2E2440"></path>
  <path d="M516 790 L703 420&#xA;           Q720 390 747 414&#xA;           L821 475&#xA;           Q846 496 822 522&#xA;           L554 806 Z" fill="#B79ED6"></path>
  <path d="M536 806 L821 526&#xA;           Q845 504 868 534&#xA;           L910 594&#xA;           Q930 624 898 641&#xA;           L558 824 Z" fill="#7C6A99"></path>
  <path d="M554 824 L898 644&#xA;           Q926 629 943 661&#xA;           L958 718&#xA;           Q970 758 930 778&#xA;           L568 846 Z" fill="#4E4562"></path>
</svg>